<svg width="1024" height="1024" viewBox="0 0 1024 1024" fill="none" xmlns="http://www.w3.org/2000/svg">
  <rect width="1024" height="1024" rx="224" fill="#0B1220"/>
  <circle cx="780" cy="250" r="96" fill="#DDEBFF" fill-opacity="0.16"/>
  <path d="M725 306C779.124 306 823 262.124 823 208C823 153.876 779.124 110 725 110C670.876 110 627 153.876 627 208C627 262.124 670.876 306 725 306Z" fill="#F8FBFF"/>
  <path d="M412.736 180.205C440.623 112.239 496.49 72.9398 537.537 92.4216C578.584 111.903 589.273 182.792 561.386 250.758C549.331 280.144 531.24 305.1 510.273 322.903L451.445 295.985C438.882 271.602 437.302 240.011 449.357 210.626L412.736 180.205Z" fill="#F8FBFF"/>
  <path d="M559.272 180.205C587.159 112.239 643.026 72.9398 684.073 92.4216C725.12 111.903 735.809 182.792 707.922 250.758C695.867 280.144 677.776 305.1 656.809 322.903L597.981 295.985C585.418 271.602 583.838 240.011 595.893 210.626L559.272 180.205Z" fill="#F8FBFF"/>
  <path d="M514.947 315C363.107 315 240 438.107 240 589.947C240 702.256 307.341 798.836 403.892 841.588C419.507 848.5 437.005 842.799 445.793 828.14C486.843 759.684 548.001 712.279 633.747 682.334C699.577 659.349 745 597.123 745 524.772C745 408.918 650.802 315 534.947 315H514.947Z" fill="#F8FBFF"/>
  <path d="M604.684 504.899C624.172 504.899 639.97 489.101 639.97 469.613C639.97 450.124 624.172 434.326 604.684 434.326C585.195 434.326 569.397 450.124 569.397 469.613C569.397 489.101 585.195 504.899 604.684 504.899Z" fill="#0B1220"/>
  <path d="M709.981 718.439C624.543 739.46 564.743 785.813 524.229 855.31C515.189 870.819 497.229 876.906 480.899 869.463C338.001 804.357 238 661.259 238 494.795C238 438.155 249.576 384.218 270.493 335.257C263.766 367.705 260.228 401.314 260.228 435.748C260.228 578.61 321.346 707.199 418.726 796.652C430.088 807.086 447.206 807.897 459.806 798.987C503.456 768.129 554.627 742.947 613.264 724.112C668.138 706.483 710.677 660.729 727.756 604.917C738.628 646.538 732.44 690.509 709.981 718.439Z" fill="#DDEBFF" fill-opacity="0.24"/>
  <path d="M477.39 600.573C497.091 600.573 513.062 584.602 513.062 564.901C513.062 545.2 497.091 529.229 477.39 529.229C457.689 529.229 441.718 545.2 441.718 564.901C441.718 584.602 457.689 600.573 477.39 600.573Z" fill="#0B1220"/>
  <path d="M545.669 608.671C540.397 622.152 529.011 633.205 514.947 638.027C500.882 633.205 489.496 622.152 484.224 608.671C482.181 603.447 485.742 597.671 491.344 597.671H538.549C544.151 597.671 547.712 603.447 545.669 608.671Z" fill="#0B1220"/>
  <path d="M573.762 660.236C543.478 688.754 488.302 688.754 458.018 660.236" stroke="#0B1220" stroke-width="24" stroke-linecap="round"/>
  <path d="M624 750C709.421 722.973 758.962 674.442 776.4 613.857" stroke="#F8FBFF" stroke-width="24" stroke-linecap="round" stroke-opacity="0.78"/>
  <path d="M288 820C344.358 805.112 392.839 782.43 433.444 751.953" stroke="#F8FBFF" stroke-width="20" stroke-linecap="round" stroke-opacity="0.5"/>
</svg>
